<svg width="24" height="24" viewBox="0 0 24 24" fill="none" xmlns="http://www.w3.org/2000/svg">
<path d="M15.5 20C17.0167 20 18.3123 19.4627 19.387 18.388C20.4617 17.3133 20.9993 16.0173 21 14.5C21 13.1167 20.5417 11.9083 19.625 10.875C18.8215 9.96928 17.8516 9.39008 16.7153 9.13737C16.4091 9.06928 16.1391 8.88621 15.9646 8.62552C15.4623 7.87502 14.8198 7.27051 14.037 6.812C13.1117 6.27 12.0993 5.99933 11 6C9.5 6 8.19567 6.47933 7.087 7.438C6.18025 8.22207 5.56648 9.16468 5.24571 10.2658C5.11765 10.7054 4.75154 11.0405 4.30804 11.1542C3.48855 11.3642 2.77754 11.7962 2.175 12.45C1.39167 13.3 1 14.3167 1 15.5C1 16.75 1.43733 17.8127 2.312 18.688C3.18667 19.5633 4.24933 20.0007 5.5 20H15.5ZM15.5 18H5.5C4.8 18 4.20833 17.7583 3.725 17.275C3.24167 16.7917 3 16.2 3 15.5C3 14.8 3.24167 14.2083 3.725 13.725C4.20833 13.2417 4.8 13 5.5 13H6C6.55228 13 7 12.5523 7 12V12C7 10.9 7.39167 9.95833 8.175 9.175C8.95833 8.39167 9.9 8 11 8C11.8 8 12.529 8.21667 13.187 8.65C13.845 9.08333 14.341 9.66667 14.675 10.4L14.6846 10.4231C14.8302 10.7724 15.1715 11 15.55 11V11C16.5 11.0333 17.3123 11.3877 17.987 12.063C18.6617 12.7383 18.9993 13.5507 19 14.5C19 15.4667 18.6583 16.2917 17.975 16.975C17.2917 17.6583 16.4667 18 15.5 18Z" fill="black"/>
<path d="M21.387 15.388C22.4617 14.3133 22.9993 13.0173 23 11.5C23 10.1167 22.5417 8.90833 21.625 7.875C20.8215 6.96928 19.8516 6.39008 18.7153 6.13737C18.4091 6.06928 18.1391 5.88621 17.9646 5.62552C17.4623 4.87502 16.8198 4.27051 16.037 3.812C15.1117 3.27 14.0993 2.99933 13 3C11.5 3 10.1957 3.47933 9.087 4.438C8.37067 5.05742 7.59714 6.18281 7.07662 7.28819C6.74131 8.00025 7.44351 8.59974 8.16807 8.29236L9.15187 7.875C9.33224 7.24338 9.67329 6.67672 10.175 6.175C10.9583 5.39167 11.9 5 13 5C13.8 5 14.529 5.21667 15.187 5.65C15.845 6.08333 16.341 6.66667 16.675 7.4L16.6846 7.42308C16.8302 7.77243 17.1715 8 17.55 8V8C18.5 8.03333 19.3123 8.38767 19.987 9.063C20.6617 9.73833 20.9993 10.5507 21 11.5C21 12.3248 20.7513 13.0464 20.2538 13.665C20.0865 13.873 19.9757 14.1252 19.977 14.3921L19.987 16.4219C20.4892 16.1637 20.9559 15.8191 21.387 15.388Z" fill="black"/>
</svg>
