<svg width="24" height="24" viewBox="0 0 24 24" fill="none" xmlns="http://www.w3.org/2000/svg">
<path fill-rule="evenodd" clip-rule="evenodd" d="M11.0742 11.9335C11.7657 9.35301 11.0234 6.72608 9.3358 4.89844C8.95398 4.44149 7.96763 3.75055 7.52218 3.4622C8.35751 3.05381 9.47167 2.78525 9.92433 2.70201C11.2449 2.47078 12.6357 2.5168 14.016 2.88665C19.0839 4.24459 22.0914 9.4538 20.7335 14.5217C19.3755 19.5897 14.1663 22.5972 9.0984 21.2392C7.71812 20.8694 6.49067 20.2139 5.46263 19.3533C4.7687 18.8521 4.04001 17.9049 3.7624 17.4939C4.28711 17.4691 5.47946 17.3671 6.05116 17.1569C8.42652 16.4179 10.3828 14.5141 11.0742 11.9335ZM11.6246 4.56143C12.2438 4.56743 12.8724 4.65079 13.4983 4.8185C17.4993 5.89056 19.8737 10.0031 18.8016 14.0041C17.7296 18.0051 13.617 20.3794 9.61604 19.3074C8.99016 19.1397 8.40408 18.8976 7.86478 18.5931C10.3103 17.4443 12.252 15.2654 13.0061 12.4512C13.7601 9.63694 13.1681 6.77914 11.6246 4.56143Z" fill="black"/>
</svg>
