<svg width="24" height="24" viewBox="0 0 24 24" fill="none" xmlns="http://www.w3.org/2000/svg">
<path d="M16.0002 4.99999C16.5337 4.99988 17.0577 5.14208 17.518 5.41192C17.9783 5.68177 18.3583 6.0695 18.6188 6.53514C18.8794 7.00078 19.011 7.52748 19.0002 8.06094C18.9893 8.5944 18.8364 9.11532 18.5572 9.56999C17.962 9.29015 17.3248 9.11008 16.6712 9.03699C16.1941 7.66351 15.2362 6.50908 13.9742 5.78699C14.5274 5.28064 15.2502 4.99986 16.0002 4.99999ZM11.9452 5.07399C11.0539 4.93182 10.142 4.99257 9.27746 5.25169C8.4129 5.51082 7.61795 5.96166 6.95179 6.57062C6.28564 7.17959 5.76545 7.931 5.42997 8.76889C5.09449 9.60678 4.95237 10.5096 5.01418 11.41C3.95796 11.8663 3.09142 12.6729 2.56072 13.6937C2.03003 14.7146 1.86764 15.8873 2.10096 17.0139C2.33429 18.1406 2.94903 19.1523 3.84152 19.8784C4.734 20.6046 5.84961 21.0007 7.00018 21H16.0002C17.192 21 18.3568 20.6451 19.3462 19.9805C20.3355 19.3159 21.1044 18.3717 21.555 17.2683C22.0056 16.1649 22.1174 14.9524 21.8761 13.7852C21.6348 12.6181 21.0513 11.5492 20.2002 10.715C20.9147 9.61982 21.1717 8.28832 20.9162 7.00589C20.6607 5.72346 19.9129 4.59217 18.8332 3.85449C17.7535 3.11682 16.4278 2.83147 15.1402 3.05962C13.8527 3.28777 12.7057 4.01025 11.9452 5.07399ZM7.00018 11C6.99918 10.008 7.3668 9.05108 8.03168 8.31492C8.69655 7.57876 9.61124 7.11591 10.5982 7.01622C11.5851 6.91653 12.5739 7.18711 13.3726 7.77544C14.1712 8.36377 14.7228 9.22786 14.9202 10.2C14.9669 10.4293 15.0926 10.6349 15.2753 10.7811C15.458 10.9272 15.6862 11.0047 15.9202 11H16.0002C17.061 11 18.0785 11.4214 18.8286 12.1716C19.5787 12.9217 20.0002 13.9391 20.0002 15C20.0002 16.0609 19.5787 17.0783 18.8286 17.8284C18.0785 18.5786 17.061 19 16.0002 19H7.00018C6.26163 19.0005 5.54884 18.7286 4.99829 18.2364C4.44773 17.7441 4.09812 17.066 4.01638 16.332C3.93464 15.598 4.12654 14.8596 4.55531 14.2583C4.98408 13.657 5.6196 13.2349 6.34018 13.073C6.59885 13.015 6.8239 12.8566 6.96585 12.6327C7.1078 12.4088 7.15504 12.1377 7.09718 11.879C7.03246 11.5905 6.99992 11.2957 7.00018 11Z" fill="black"/>
</svg>
