<svg width="24" height="24" viewBox="0 0 24 24" fill="none" xmlns="http://www.w3.org/2000/svg">
<path fill-rule="evenodd" clip-rule="evenodd" d="M11.4998 2C9.79032 1.99986 8.14962 2.67313 6.93302 3.87401C5.71642 5.07489 5.02186 6.70669 4.99977 8.416C4.20528 8.76276 3.5146 9.31012 2.9955 10.0044C2.47639 10.6986 2.1467 11.5159 2.03877 12.376C2.01911 12.5079 2.02601 12.6423 2.05907 12.7715C2.09213 12.9006 2.15067 13.0218 2.23127 13.128C2.31187 13.2342 2.41288 13.3232 2.52838 13.3898C2.64387 13.4564 2.77151 13.4992 2.9038 13.5158C3.03608 13.5323 3.17034 13.5222 3.29867 13.4861C3.427 13.45 3.54681 13.3886 3.65107 13.3055C3.75533 13.2224 3.84192 13.1193 3.90575 13.0023C3.96958 12.8853 4.00937 12.7566 4.02277 12.624C4.09851 12.0244 4.35355 11.4617 4.75449 11.0096C5.15543 10.5574 5.68358 10.2369 6.26977 10.09C6.5063 10.0304 6.71326 9.88713 6.85241 9.68678C6.99156 9.48642 7.05349 9.24247 7.02677 9C6.89723 7.87144 7.19931 6.73565 7.87238 5.82056C8.54545 4.90547 9.5397 4.27879 10.6556 4.06629C11.7715 3.85379 12.9265 4.07119 13.8888 4.67487C14.8511 5.27854 15.5495 6.22382 15.8438 7.321C15.9478 7.703 16.2658 7.989 16.6548 8.053C17.6578 8.21943 18.5598 8.76157 19.1774 9.56922C19.7951 10.3769 20.0819 11.3894 19.9798 12.401C19.9649 12.5326 19.9764 12.6658 20.0134 12.793C20.0505 12.9201 20.1124 13.0386 20.1957 13.1416C20.2789 13.2446 20.3818 13.3301 20.4983 13.393C20.6148 13.4559 20.7427 13.4951 20.8745 13.5082C21.0062 13.5213 21.1393 13.5081 21.2659 13.4694C21.3926 13.4307 21.5103 13.3672 21.6122 13.2826C21.7141 13.198 21.7982 13.094 21.8595 12.9767C21.9209 12.8593 21.9584 12.7309 21.9698 12.599C22.1116 11.1879 21.749 9.77211 20.9463 8.6029C20.1436 7.43369 18.9526 6.58663 17.5848 6.212C17.1193 4.97433 16.2875 3.90805 15.2002 3.15547C14.113 2.40288 12.8221 1.9998 11.4998 2ZM2.99977 16C2.99977 15.7348 3.10512 15.4804 3.29266 15.2929C3.4802 15.1054 3.73455 15 3.99977 15H19.9998C20.265 15 20.5193 15.1054 20.7069 15.2929C20.8944 15.4804 20.9998 15.7348 20.9998 16C20.9998 16.2652 20.8944 16.5196 20.7069 16.7071C20.5193 16.8946 20.265 17 19.9998 17H3.99977C3.73455 17 3.4802 16.8946 3.29266 16.7071C3.10512 16.5196 2.99977 16.2652 2.99977 16ZM6.99977 20C6.99977 19.7348 7.10512 19.4804 7.29266 19.2929C7.4802 19.1054 7.73455 19 7.99977 19H16.9998C17.265 19 17.5193 19.1054 17.7069 19.2929C17.8944 19.4804 17.9998 19.7348 17.9998 20C17.9998 20.2652 17.8944 20.5196 17.7069 20.7071C17.5193 20.8946 17.265 21 16.9998 21H7.99977C7.73455 21 7.4802 20.8946 7.29266 20.7071C7.10512 20.5196 6.99977 20.2652 6.99977 20Z" fill="black"/>
</svg>
