<svg width="24" height="24" viewBox="0 0 24 24" fill="none" xmlns="http://www.w3.org/2000/svg">
<path d="M18 19C18.2833 19 18.5207 18.904 18.712 18.712C18.9033 18.52 18.9993 18.2827 19 18C19.0007 17.7173 18.9047 17.48 18.712 17.288C18.5193 17.096 18.282 17 18 17C17.718 17 17.4803 17.096 17.287 17.288C17.0937 17.48 16.998 17.7173 17 18C17.002 18.2827 17.098 18.5203 17.288 18.713C17.478 18.9057 17.7153 19.0013 18 19ZM6 19C6.28333 19 6.52067 18.904 6.712 18.712C6.90333 18.52 6.99933 18.2827 7 18C7.00067 17.7173 6.90467 17.48 6.712 17.288C6.51933 17.096 6.282 17 6 17C5.718 17 5.48033 17.096 5.287 17.288C5.09367 17.48 4.998 17.7173 5 18C5.002 18.2827 5.098 18.5203 5.288 18.713C5.478 18.9057 5.71533 19.0013 6 19ZM15 23C15.2833 23 15.5207 22.904 15.712 22.712C15.9033 22.52 15.9993 22.2827 16 22C16.0007 21.7173 15.9047 21.48 15.712 21.288C15.5193 21.096 15.282 21 15 21C14.718 21 14.4803 21.096 14.287 21.288C14.0937 21.48 13.998 21.7173 14 22C14.002 22.2827 14.098 22.5203 14.288 22.713C14.478 22.9057 14.7153 23.0013 15 23ZM12 19C12.2833 19 12.5207 18.904 12.712 18.712C12.9033 18.52 12.9993 18.2827 13 18C13.0007 17.7173 12.9047 17.48 12.712 17.288C12.5193 17.096 12.282 17 12 17C11.718 17 11.4803 17.096 11.287 17.288C11.0937 17.48 10.998 17.7173 11 18C11.002 18.2827 11.098 18.5203 11.288 18.713C11.478 18.9057 11.7153 19.0013 12 19ZM9 23C9.28333 23 9.52067 22.904 9.712 22.712C9.90333 22.52 9.99933 22.2827 10 22C10.0007 21.7173 9.90467 21.48 9.712 21.288C9.51933 21.096 9.282 21 9 21C8.718 21 8.48033 21.096 8.287 21.288C8.09367 21.48 7.998 21.7173 8 22C8.002 22.2827 8.098 22.5203 8.288 22.713C8.478 22.9057 8.71533 23.0013 9 23ZM16.5 16C18.0167 16 19.3123 15.4627 20.387 14.388C21.4617 13.3133 21.9993 12.0173 22 10.5C22 9.11667 21.5417 7.90833 20.625 6.875C19.7083 5.84167 18.575 5.23333 17.225 5.05C16.6917 4.1 15.9623 3.354 15.037 2.812C14.1117 2.27 13.0993 1.99933 12 2C10.5 2 9.19567 2.47933 8.087 3.438C6.97833 4.39667 6.30767 5.59233 6.075 7.025C4.925 7.125 3.95833 7.6 3.175 8.45C2.39167 9.3 2 10.3167 2 11.5C2 12.75 2.43733 13.8127 3.312 14.688C4.18667 15.5633 5.24933 16.0007 6.5 16H16.5ZM16.5 14H6.5C5.8 14 5.20833 13.7583 4.725 13.275C4.24167 12.7917 4 12.2 4 11.5C4 10.8 4.24167 10.2083 4.725 9.725C5.20833 9.24167 5.8 9 6.5 9H8V8C8 6.9 8.39167 5.95833 9.175 5.175C9.95833 4.39167 10.9 4 12 4C12.8 4 13.529 4.21667 14.187 4.65C14.845 5.08333 15.341 5.66667 15.675 6.4L15.925 7H16.55C17.5 7.03333 18.3123 7.38767 18.987 8.063C19.6617 8.73833 19.9993 9.55067 20 10.5C20 11.4667 19.6583 12.2917 18.975 12.975C18.2917 13.6583 17.4667 14 16.5 14Z" fill="black"/>
</svg>
