<svg width="24" height="24" viewBox="0 0 24 24" fill="none" xmlns="http://www.w3.org/2000/svg">
<path fill-rule="evenodd" clip-rule="evenodd" d="M18.5572 9.56992C17.962 9.29009 17.3248 9.11002 16.6712 9.03692C16.1941 7.66344 15.2362 6.50902 13.9742 5.78692C13.1846 5.33515 12.6401 5.18476 11.9452 5.07392C11.0539 4.93176 10.142 4.9925 9.27746 5.25163C8.4129 5.51076 7.61795 5.96159 6.95179 6.57056C6.28564 7.17953 5.76545 7.93094 5.42997 8.76882C5.09449 9.60671 4.95237 10.5095 5.01418 11.4099C3.95796 11.8662 3.09142 12.6728 2.56072 13.6937C2.03003 14.7145 1.86764 15.8872 2.10096 17.0139C2.33429 18.1405 2.94903 19.1522 3.84152 19.8784C4.734 20.6045 5.84961 21.0006 7.00018 20.9999H16.0002C17.192 21 18.3568 20.645 19.3462 19.9804C20.3355 19.3158 21.1044 18.3716 21.555 17.2683C22.0056 16.1649 22.1174 14.9523 21.8761 13.7852C21.6348 12.618 21.0513 11.5492 20.2002 10.7149C19.5603 10.0869 18.8382 9.68992 18.5572 9.56992ZM8.03168 8.31486C7.3668 9.05102 6.99918 10.008 7.00018 10.9999C6.99992 11.2956 7.03246 11.5904 7.09718 11.8789C7.15504 12.1376 7.1078 12.4087 6.96585 12.6326C6.8239 12.8565 6.59885 13.0149 6.34018 13.0729C5.6196 13.2349 4.98408 13.6569 4.55531 14.2582C4.12654 14.8596 3.93464 15.5979 4.01638 16.3319C4.09812 17.0659 4.44773 17.744 4.99829 18.2363C5.54884 18.7286 6.26163 19.0005 7.00018 18.9999H16.0002C17.061 18.9999 18.0785 18.5785 18.8286 17.8284C19.5787 17.0782 20.0002 16.0608 20.0002 14.9999C20.0002 13.9391 19.5787 12.9216 18.8286 12.1715C18.0785 11.4214 17.061 10.9999 16.0002 10.9999H15.9202C15.6862 11.0046 15.458 10.9272 15.2753 10.781C15.0926 10.6348 14.9669 10.4292 14.9202 10.1999C14.7228 9.2278 14.1712 8.3637 13.3726 7.77537C12.5739 7.18705 11.5851 6.91646 10.5982 7.01616C9.61124 7.11585 8.69655 7.5787 8.03168 8.31486Z" fill="black"/>
</svg>
